<mxfile host="app.diagrams.net" agent="Mozilla/5.0 (Windows NT 10.0; Win64; x64) AppleWebKit/537.36 (KHTML, like Gecko) Chrome/140.0.0.0 Safari/537.36" version="28.2.5">
  <diagram id="VnekTlyoDM-fduJI4oiZ" name="Page-1">
    <mxGraphModel dx="741" dy="372" grid="1" gridSize="10" guides="1" tooltips="1" connect="1" arrows="1" fold="1" page="1" pageScale="1" pageWidth="1169" pageHeight="1654" math="0" shadow="0">
      <root>
        <mxCell id="0" />
        <mxCell id="1" parent="0" />
        <mxCell id="syp8sQonNkeXnLw--F8j-1" value="Kurzusfelvetel" style="ellipse;whiteSpace=wrap;html=1;" vertex="1" parent="1">
          <mxGeometry x="560" y="38.28" width="120" height="80" as="geometry" />
        </mxCell>
        <mxCell id="syp8sQonNkeXnLw--F8j-2" value="Tanev" style="rhombus;whiteSpace=wrap;html=1;" vertex="1" parent="1">
          <mxGeometry x="380" y="38.28" width="80" height="80" as="geometry" />
        </mxCell>
        <mxCell id="syp8sQonNkeXnLw--F8j-3" value="Egyetem" style="rhombus;whiteSpace=wrap;html=1;" vertex="1" parent="1">
          <mxGeometry x="780" y="38.28" width="80" height="80" as="geometry" />
        </mxCell>
        <mxCell id="syp8sQonNkeXnLw--F8j-5" value="" style="endArrow=none;dashed=1;html=1;rounded=0;exitX=1;exitY=0.5;exitDx=0;exitDy=0;entryX=0;entryY=0.5;entryDx=0;entryDy=0;" edge="1" parent="1" source="syp8sQonNkeXnLw--F8j-2" target="syp8sQonNkeXnLw--F8j-1">
          <mxGeometry width="50" height="50" relative="1" as="geometry">
            <mxPoint x="620" y="288.28" as="sourcePoint" />
            <mxPoint x="670" y="238.28" as="targetPoint" />
          </mxGeometry>
        </mxCell>
        <mxCell id="syp8sQonNkeXnLw--F8j-6" value="" style="endArrow=none;dashed=1;html=1;rounded=0;exitX=1;exitY=0.5;exitDx=0;exitDy=0;" edge="1" parent="1" source="syp8sQonNkeXnLw--F8j-1" target="syp8sQonNkeXnLw--F8j-3">
          <mxGeometry width="50" height="50" relative="1" as="geometry">
            <mxPoint x="620" y="288.28" as="sourcePoint" />
            <mxPoint x="670" y="238.28" as="targetPoint" />
          </mxGeometry>
        </mxCell>
        <mxCell id="syp8sQonNkeXnLw--F8j-7" value="hallgato" style="ellipse;whiteSpace=wrap;html=1;" vertex="1" parent="1">
          <mxGeometry x="410" y="160" width="120" height="80" as="geometry" />
        </mxCell>
        <mxCell id="syp8sQonNkeXnLw--F8j-8" value="" style="ellipse;whiteSpace=wrap;html=1;" vertex="1" parent="1">
          <mxGeometry x="720" y="170" width="120" height="80" as="geometry" />
        </mxCell>
        <mxCell id="syp8sQonNkeXnLw--F8j-9" value="kurzusok" style="ellipse;whiteSpace=wrap;html=1;" vertex="1" parent="1">
          <mxGeometry x="730" y="180" width="100" height="60" as="geometry" />
        </mxCell>
        <mxCell id="syp8sQonNkeXnLw--F8j-10" value="" style="endArrow=none;html=1;rounded=0;exitX=1;exitY=0;exitDx=0;exitDy=0;entryX=0;entryY=1;entryDx=0;entryDy=0;" edge="1" parent="1" source="syp8sQonNkeXnLw--F8j-7" target="syp8sQonNkeXnLw--F8j-1">
          <mxGeometry width="50" height="50" relative="1" as="geometry">
            <mxPoint x="512.4264068711927" y="169.9957287525381" as="sourcePoint" />
            <mxPoint x="670" y="238.28" as="targetPoint" />
          </mxGeometry>
        </mxCell>
        <mxCell id="syp8sQonNkeXnLw--F8j-11" value="" style="endArrow=none;html=1;rounded=0;entryX=1;entryY=1;entryDx=0;entryDy=0;exitX=0;exitY=0;exitDx=0;exitDy=0;" edge="1" parent="1" source="syp8sQonNkeXnLw--F8j-8" target="syp8sQonNkeXnLw--F8j-1">
          <mxGeometry width="50" height="50" relative="1" as="geometry">
            <mxPoint x="747.5735931288068" y="169.9957287525381" as="sourcePoint" />
            <mxPoint x="700" y="168.28" as="targetPoint" />
          </mxGeometry>
        </mxCell>
        <mxCell id="syp8sQonNkeXnLw--F8j-12" value="id" style="rhombus;whiteSpace=wrap;html=1;" vertex="1" parent="1">
          <mxGeometry x="920" y="170" width="80" height="80" as="geometry" />
        </mxCell>
        <mxCell id="syp8sQonNkeXnLw--F8j-13" value="" style="endArrow=none;dashed=1;html=1;rounded=0;exitX=1;exitY=0.5;exitDx=0;exitDy=0;entryX=0;entryY=0.5;entryDx=0;entryDy=0;" edge="1" parent="1" source="syp8sQonNkeXnLw--F8j-8" target="syp8sQonNkeXnLw--F8j-12">
          <mxGeometry width="50" height="50" relative="1" as="geometry">
            <mxPoint x="630" y="180" as="sourcePoint" />
            <mxPoint x="680" y="130" as="targetPoint" />
          </mxGeometry>
        </mxCell>
        <mxCell id="syp8sQonNkeXnLw--F8j-14" value="evf" style="rhombus;whiteSpace=wrap;html=1;" vertex="1" parent="1">
          <mxGeometry x="240" y="160" width="80" height="80" as="geometry" />
        </mxCell>
        <mxCell id="syp8sQonNkeXnLw--F8j-15" value="" style="endArrow=none;dashed=1;html=1;rounded=0;exitX=1;exitY=0.5;exitDx=0;exitDy=0;entryX=0;entryY=0.5;entryDx=0;entryDy=0;" edge="1" parent="1" source="syp8sQonNkeXnLw--F8j-14" target="syp8sQonNkeXnLw--F8j-7">
          <mxGeometry width="50" height="50" relative="1" as="geometry">
            <mxPoint x="390" y="180" as="sourcePoint" />
            <mxPoint x="440" y="130" as="targetPoint" />
          </mxGeometry>
        </mxCell>
      </root>
    </mxGraphModel>
  </diagram>
</mxfile>
